<svg id="Capa_1" enable-background="new 0 0 498.068 498.068" height="100" viewBox="0 0 498.068 498.068" width="200" xmlns="http://www.w3.org/2000/svg"><g><path d="m354.17 190.419c-28.864 37.124-89.486 38.642-89.486 38.642s-16.365-60.705 14.23-96.435c43.285-50.596 89.486-38.642 89.486-38.642s24.334 46.83-14.23 96.435z" fill="#2cbfae"/><path d="m263.368 230.614c-3.949-.233-6.961-3.624-6.728-7.573.104-1.756.85-3.412 2.097-4.654 20.699-21.511 37.918-46.117 51.04-72.931 1.647-3.602 5.903-5.187 9.505-3.54s5.187 5.903 3.54 9.505c-13.771 28.4-31.986 54.421-53.957 77.081-1.442 1.465-3.446 2.235-5.497 2.112z" fill="#16a897"/><path d="m236.17 44.367c26.142 39.086 8.485 97.105 8.485 97.105s-62.768-3.593-87.043-43.877c-34.39-57.046-8.485-97.105-8.485-97.105s52.107-8.349 87.043 43.877z" fill="#2cbfae"/><path d="m211.865 187.264c40.652 23.634 50.269 83.515 50.269 83.515s-57.971 24.31-97.467-1.186c-55.931-36.169-50.269-83.515-50.269-83.515s43.149-30.393 97.467 1.186z" fill="#2cbfae"/><path d="m262.662 277.918c-1.915.146-3.808-.484-5.253-1.749-.374-.332-38.132-33.026-72.723-40.818-3.858-.868-6.281-4.698-5.413-8.556s4.698-6.281 8.556-5.413c38.173 8.598 77.354 42.555 79.008 44.002 2.979 2.603 3.284 7.128.682 10.107-1.232 1.41-2.966 2.281-4.832 2.428h-.025z" fill="#16a897"/><path d="m344.102 358.966c-33.673 20.853-81.985 4.275-81.985 4.275s4.874-52.73 39.495-71.976c49.03-27.251 82.009-4.281 82.009-4.281s5.472 44.12-39.519 71.982z" fill="#2cbfae"/><path d="m262.117 363.241s40.812-15.487 61.57-39.584" fill="none"/><g fill="#16a897"><path d="m218.287 498.068c-3.959-.004-7.165-3.216-7.162-7.176.001-.948.19-1.887.556-2.762 115.865-275.75-18.5-410.903-19.869-412.249-2.807-2.787-2.823-7.322-.036-10.129 2.737-2.756 7.172-2.829 9.998-.164 1.447 1.393 142.992 142.784 23.124 428.098-1.121 2.658-3.726 4.385-6.611 4.382z"/><path d="m261.049 366.218c1.566.142 3.124-.351 4.322-1.37.314-.267 31.627-26.605 60.058-32.576 3.173-.665 5.207-3.776 4.542-6.949s-3.776-5.207-6.949-4.542c-31.372 6.587-63.877 33.945-65.223 35.108-2.469 2.101-2.768 5.805-.667 8.275.996 1.17 2.41 1.904 3.94 2.042z"/></g></g></svg>
